<svg width="64" height="64" viewBox="0 0 64 64" fill="none" xmlns="http://www.w3.org/2000/svg" data-fg-jrg0="1.31:1.1165:/src/app/components/assets/actions/ClickLinkIcon.tsx:3:5:49:1108:e:svg:xtetxtetxtetete:1" data-fgid-jrg0=":rjl:" data-fg-callsite-d3bl90=""><path d="M 18 16 L 18 42 L 26 34 L 32 46 L 38 42 L 32 30 L 42 30 Z" fill="#DC2626" stroke="#991B1B" stroke-width="2" stroke-linejoin="round" data-fg-jrg2="1.31:1.1165:/src/app/components/assets/actions/ClickLinkIcon.tsx:11:7:215:187:e:path"/><g opacity="0.6" data-fg-jrg4="1.31:1.1165:/src/app/components/assets/actions/ClickLinkIcon.tsx:20:7:452:452:e:g:ete"><path d="M 38 46 L 44 46 C 48 46 50 44 50 40 C 50 36 48 34 44 34 L 38 34" stroke="#DC2626" stroke-width="2.5" stroke-linecap="round" fill="none" data-fg-jrg5="1.31:1.1165:/src/app/components/assets/actions/ClickLinkIcon.tsx:21:9:478:203:e:path"/><path d="M 26 46 L 20 46 C 16 46 14 44 14 40 C 14 36 16 34 20 34 L 26 34" stroke="#DC2626" stroke-width="2.5" stroke-linecap="round" fill="none" data-fg-jrg6="1.31:1.1165:/src/app/components/assets/actions/ClickLinkIcon.tsx:28:9:690:203:e:path"/></g><circle cx="46" cy="18" r="8" fill="#DC2626" data-fg-jrg8="1.31:1.1165:/src/app/components/assets/actions/ClickLinkIcon.tsx:38:7:947:47:e:circle"/><line x1="46" y1="14" x2="46" y2="18" stroke="white" stroke-width="2" stroke-linecap="round" data-fg-jrg9="1.31:1.1165:/src/app/components/assets/actions/ClickLinkIcon.tsx:39:7:1001:93:e:line"/><circle cx="46" cy="21" r="1" fill="white" data-fg-jrg10="1.31:1.1165:/src/app/components/assets/actions/ClickLinkIcon.tsx:40:7:1101:45:e:circle"/></svg>